<?xml version="1.0"?>
<svg xmlns="http://www.w3.org/2000/svg" xmlns:xlink="http://www.w3.org/1999/xlink" data-noselect="" viewBox="0 0 800 600" width="1600" height="1200" preserveAspectRatio="none" version="1.1" class="svg-canvas"><defs/> <g id="background" data-noselect=""><!----> <!----></g> <g id="shape_nAQGlLUrrs" transform="translate(313.5,145.7) rotate(0,86.5,86.5) scale(1,1)" filter="" style="opacity: 1;"><g><svg xmlns="http://www.w3.org/2000/svg" id="&#x56FE;&#x5C42;_1" data-name="&#x56FE;&#x5C42; 1" viewBox="0 0 173 173" width="173" height="173" class="style-removed" preserveAspectRatio="none" data-parent="shape_nAQGlLUrrs"><title>&#x672A;&#x6807;&#x9898;-3</title><rect width="173" height="173" class="radius-elem" x="0" y="0" fill="#1123E8" rx="45" ry="45" stroke-width="0"/></svg></g></g><g id="shape_jTUuJC8ana" transform="translate(330,163.253350134) rotate(0,70,70) scale(1,1)" filter="" style="opacity: 1;"><g><svg xmlns="http://www.w3.org/2000/svg" xmlns:xlink="http://www.w3.org/1999/xlink" version="1.1" id="&#x56FE;&#x5C42;_1" x="0px" y="0px" width="140" height="137.89329973199" viewBox="0 0 146.1999969482422 144" style="enable-background:new 0 0 146.2 144;" xml:space="preserve" class="style-removed" preserveAspectRatio="none" data-parent="shape_jTUuJC8ana">

<g>
	<polygon points="24.4,43 0,144 7,144 31.3,43  " fill="#FFFFFF" stroke-width="0"/>
	<polygon points="35.6,43 11.2,144 18.2,144 42.5,43  " fill="#FFFFFF" stroke-width="0"/>
	<polygon points="46.8,43 22.4,144 29.4,144 53.7,43  " fill="#FFFFFF" stroke-width="0"/>
	<polygon points="62.1,43 58.5,43 34.1,144 40.1,144 64.4,43  " fill="#FFFFFF" stroke-width="0"/>
	<polygon points="65.8,81.7 75.1,43 70.2,43 60.8,81.7  " fill="#FFFFFF" stroke-width="0"/>
	<polygon points="76.5,81.7 85.8,43 81.9,43 72.5,81.7  " fill="#FFFFFF" stroke-width="0"/>
	<polygon points="87.2,81.7 96.5,43 93.5,43 84.2,81.7  " fill="#FFFFFF" stroke-width="0"/>
	<path d="M146.2,21.2c-0.4-4.4-1.8-8.3-4.2-11.6l-23.5,97.5c3.9-3.3,7.3-7.2,9.8-11.6L146.2,21.2z" fill="#FFFFFF" stroke-width="0"/>
	<path d="M132.6,2.1l-27.2,112.5c2.7-1,5.4-2.2,7.9-3.8L138.7,5.9C136.9,4.3,134.9,3,132.6,2.1z" fill="#FFFFFF" stroke-width="0"/>
	<polygon points="35.4,0 27.3,33.6 28.1,33.6 36.2,0  " fill="#FFFFFF" stroke-width="0"/>
	<polygon points="46.6,0 38.5,33.6 39.3,33.6 47.4,0  " fill="#FFFFFF" stroke-width="0"/>
	<polygon points="57.8,0 49.7,33.6 50.4,33.6 58.6,0  " fill="#FFFFFF" stroke-width="0"/>
	<polygon points="68.9,0 60.8,33.6 61.8,33.6 69.9,0  " fill="#FFFFFF" stroke-width="0"/>
	<path d="M122.4,0L94.2,116.6c2,0,4.1-0.2,6.1-0.6L128.2,0.7C126.4,0.3,124.4,0,122.4,0z" fill="#FFFFFF" stroke-width="0"/>
	<polygon points="111.7,0 103.6,33.6 108.6,33.6 116.7,0  " fill="#FFFFFF" stroke-width="0"/>
	<polygon points="90.7,86.9 83.5,116.7 88.5,116.7 95.7,86.9  " fill="#FFFFFF" stroke-width="0"/>
	<polygon points="80,86.9 72.8,116.7 76.8,116.7 84,86.9  " fill="#FFFFFF" stroke-width="0"/>
	<polygon points="101,0 92.9,33.6 96.9,33.6 105,0  " fill="#FFFFFF" stroke-width="0"/>
	<polygon points="90.3,0 82.2,33.6 85.2,33.6 93.3,0  " fill="#FFFFFF" stroke-width="0"/>
	<polygon points="69.3,86.9 62.1,116.7 65.1,116.7 72.3,86.9  " fill="#FFFFFF" stroke-width="0"/>
	<polygon points="58.6,86.9 51.4,116.7 53.4,116.7 60.6,86.9  " fill="#FFFFFF" stroke-width="0"/>
	<polygon points="79.6,0 71.5,33.6 73.5,33.6 81.6,0  " fill="#FFFFFF" stroke-width="0"/>
</g>
</svg></g></g><g id="shape_5bSPeLH7iM" transform="translate(136.28999999999002,124.46000000000004) rotate(0,263.71,252.83999999999997) scale(1,1)" filter="" style="opacity: 1;"><g><svg xmlns="http://www.w3.org/2000/svg" xmlns:xlink="http://www.w3.org/1999/xlink" version="1.1" width="667.8399999999999" height="505.67999999999995" viewBox="0 0 667.8399999999999 505.67999999999995"><g data-width="386.29542000000004" transform="translate(70.56228999999998, 0)"><path d="M6.32-51.11L42.69-51.11L39.11-17.34L38.40-10.81L8.99-10.81L6.88 8.99L0 8.99L5.62-44.51L6.32-51.11ZM12.50-44.51L9.62-17.34L32.23-17.34L35.10-44.51L12.50-44.51Z" transform="translate(0 280.84) skewX(6)" fill="rgb(51, 51, 51)" stroke="rgb(51, 51, 51)" stroke-width="0.117" data-glyph-w="47.67259" data-glyph-h="84.252" data-glyph-ascender="70.21" data-glyph-descender="-14.042"/><path d="M13.20-51.11L7.58 2.46L37.00 2.46L34.61 8.99L0 8.99L6.32-51.11L13.20-51.11Z" transform="translate(47.67259 280.84) skewX(6)" fill="rgb(51, 51, 51)" stroke="rgb(51, 51, 51)" stroke-width="0.117" data-glyph-w="46.05776" data-glyph-h="84.252" data-glyph-ascender="70.21" data-glyph-descender="-14.042"/><path d="M46.48 8.99L39.60 8.99L36.65-5.97L12.99-5.97L6.88 8.99L0 8.99L24.50-51.11L34.61-51.11L46.48 8.99ZM28.93-45.07L15.66-12.57L35.32-12.57L28.93-45.07Z" transform="translate(93.73035 280.84) skewX(6)" fill="rgb(51, 51, 51)" stroke="rgb(51, 51, 51)" stroke-width="0.117" data-glyph-w="52.09582" data-glyph-h="84.252" data-glyph-ascender="70.21" data-glyph-descender="-14.042"/><path d="M36.93-2.53L42.06-51.11L48.94-51.11L42.62 8.99L34.75 8.99L12.15-41.35L6.88 8.99L0 8.99L6.25-51.11L15.10-51.11L36.93-2.53Z" transform="translate(145.82617 280.84) skewX(6)" fill="rgb(51, 51, 51)" stroke="rgb(51, 51, 51)" stroke-width="0.117" data-glyph-w="49.21721" data-glyph-h="84.252" data-glyph-ascender="70.21" data-glyph-descender="-14.042"/><path d="M36.93-2.53L42.06-51.11L48.94-51.11L42.62 8.99L34.75 8.99L12.15-41.35L6.88 8.99L0 8.99L6.25-51.11L15.10-51.11L36.93-2.53Z" transform="translate(195.04337999999998 280.84) skewX(6)" fill="rgb(51, 51, 51)" stroke="rgb(51, 51, 51)" stroke-width="0.117" data-glyph-w="49.21721" data-glyph-h="84.252" data-glyph-ascender="70.21" data-glyph-descender="-14.042"/><path d="M41.77-51.11L41.07-44.51L12.50-44.51L10.46-25.21L35.74-25.21L35.03-18.61L9.76-18.61L7.58 2.46L37.00 2.46L34.61 8.99L0 8.99L2.88-18.61L3.58-25.21L5.62-44.51L6.32-51.11L41.77-51.11Z" transform="translate(244.26058999999998 280.84) skewX(6)" fill="rgb(51, 51, 51)" stroke="rgb(51, 51, 51)" stroke-width="0.117" data-glyph-w="46.12797" data-glyph-h="84.252" data-glyph-ascender="70.21" data-glyph-descender="-14.042"/><path d="M6.32-51.11L42.62-51.11L39.53-21.55L38.83-15.02L31.24-15.02L37.70 8.99L30.82 8.99L24.36-15.02L9.41-15.02L6.88 8.99L0 8.99L5.62-44.51L6.32-51.11ZM12.50-44.51L10.11-21.55L32.65-21.55L35.03-44.51L12.50-44.51Z" transform="translate(290.38856 280.84) skewX(6)" fill="rgb(51, 51, 51)" stroke="rgb(51, 51, 51)" stroke-width="0.117" data-glyph-w="46.05776" data-glyph-h="84.252" data-glyph-ascender="70.21" data-glyph-descender="-14.042"/><path d="M41.77-51.11L48.66-51.11L28.65-22.33L43.88 8.99L37.00 8.99L24.57-16.50L6.88 8.99L0 8.99L21.77-22.33L7.79-51.11L14.67-51.11L25.84-28.15L41.77-51.11Z" transform="translate(336.44632 280.84) skewX(6)" fill="rgb(51, 51, 51)" stroke="rgb(51, 51, 51)" stroke-width="0.117" data-glyph-w="49.8491" data-glyph-h="84.252" data-glyph-ascender="70.21" data-glyph-descender="-14.042"/></g></svg></g></g></svg>
